<?xml version="1.0" encoding="utf-8"?>
<!-- Generator: Adobe Illustrator 27.8.0, SVG Export Plug-In . SVG Version: 6.00 Build 0)  -->
<svg version="1.1" id="Layer_1" xmlns="http://www.w3.org/2000/svg" xmlns:xlink="http://www.w3.org/1999/xlink" x="0px" y="0px" viewBox="0 0 1080 1080" style="enable-background: new 0 0 1080 1080" xml:space="preserve">
<g>
	<path d="M127.6,846H81v-25.4c0-16,5.8-22.5,20.6-22.5c8.2,0,24.7,0,25.9,0.4v-52.4c-9.7-0.8-34.5-1.2-44.2-1.2
		c-39.3,0-56.1,22.1-56.1,68.3V846H0v49.9h27.3V1080H81V895.9h46.6V846L127.6,846z M143.3,1080h53.8V747.6h-53.8V1080L143.3,1080z
		 M374.3,926.6c0-58.9-17.9-87.9-76-87.9c-50.2,0-73.6,33.9-73.6,88.3v7H273v-7.8c0-20.9,7-37.2,24.9-37.2
		c18.3,0,24.9,13.5,24.9,34.8c0,18.8-5.1,27.8-21.4,33.5c-35.8,13.5-42.1,15.5-54.1,23.7c-23,15.5-29.2,44.6-29.2,76.9
		c0,7.4,0.4,14.7,1.6,22.1H275c-4.3-7.4-5.5-19.2-5.5-30.3c0-24.9,9-39.7,30.4-46.2c8.2-2.9,16.4-6.5,23-14.3v56.4
		c0,11.4-3.5,26.6-11.7,34.4h63.1v-2.9V926.6L374.3,926.6z M459.2,1080c-9.3-14.7-10.5-54-10.5-89.6c0-43-1.2-98.6,30.8-98.6
		c20.6,0,24.2,30.7,24.2,57.7H555c0-60.9-20.6-110.8-75.2-110.8c-65.8,0-84.9,61.8-84.9,150.9c0,40.5,1.2,52.4,9,90.4H459.2
		L459.2,1080z M548.8,1080c3.9-16,6.2-34.8,6.2-56.9h-51.4c0,19.6-1.2,43.4-9,56.9H548.8L548.8,1080z M735.3,920.1
		c0-45.8-11.7-81.4-53.4-81.4c-23.4,0-40.5,12.3-51,36.8h-0.8V747.6h-53.8V1080h53.8V942.6c0-31.5,9.7-47.4,28.4-47.4
		c19.5,0,23,16.4,23,40.1V1080h53.8V920.1L735.3,920.1z"></path>
	<path d="M164.8,552.6c0-58.9-17.9-87.9-76-87.9c-50.2,0-73.6,33.9-73.6,88.3v7h48.3v-7.8c0-20.9,7-37.2,24.9-37.2
		c18.3,0,24.9,13.5,24.9,34.8c0,18.8-5.1,27.8-21.4,33.5c-35.8,13.5-42.1,15.5-54.1,23.7c-23,15.5-29.2,44.6-29.2,76.9
		c0,7.4,0.4,14.7,1.6,22.1h55.3c-4.3-7.4-5.5-19.2-5.5-30.3c0-24.9,9-39.7,30.4-46.2c8.2-2.9,16.4-6.5,23-14.3v56.4
		c0,11.4-3.5,26.6-11.7,34.4h63.1v-2.9V552.6L164.8,552.6z M255.1,706c-14.4-7.4-15.2-65.9-15.2-94.9V472h-53.8v139.1
		c0,29.9,2.7,71.2,10.1,94.9H255.1L255.1,706z M351.4,472h-53.8v139.1c0,35.2-1.2,81.4-15.2,94.9h68.9V472L351.4,472z M541.2,643.8
		c0-28.6-3.5-51.9-10.1-69.5c-6.6-18-17.5-28.6-33.1-32.3v-1.2c6.6-3.7,12.1-8.2,16.8-13.1c4.7-5.3,8.2-11,10.9-17.2
		c2.3-6.5,4.3-13.5,5.5-21.3c0.8-7.8,1.6-16.8,1.6-26.6c0-30.3-6.6-52.8-19.9-67.9c-13.2-15.1-31.9-22.9-56.9-22.9
		c-28.4,0-49.5,8.6-62.7,25.4c-13.2,16.8-19.9,43.8-19.9,81.4V706H427V480.2c0-17.2,1.6-31.1,5.1-42.1c3.1-11,10.1-16.4,21-16.4
		c5.1,0,9.4,1.2,12.5,4.1c3.1,2.5,5.8,6.1,7.8,10.6c1.9,4.5,3.5,9.4,4.3,15.1c0.8,5.3,1.2,11.4,1.2,18c0,14.7-2,27-5.8,36.4
		c-3.9,9.4-10.5,13.9-19.9,13.9h-6.6v49.9h9.7c11.7,0,19.9,5.7,24.5,17.6c4.3,11.9,6.6,27.4,6.6,47c0,11.9-0.4,22.9-1.2,32.3
		c-0.8,9.4-2.7,17.6-5.1,24.5c-2.3,6.1-5.5,11-9.4,14.7h62.3c1.9-7,3.5-13.9,4.3-21.7C540,670.4,541.2,656.9,541.2,643.8
		L541.2,643.8z M622.2,706c-7.8-13.5-8.6-32.3-8.6-79.3H720v-16.8c0-85.5-13.6-145.2-76.7-145.2c-68.2,0-83.4,61.4-83.4,148.1
		c0,32.7,0.4,67.1,7,93.3H622.2L622.2,706z M613.6,571.8c0-24.1,4.7-56.9,27.7-56.9c23.8,0,25.7,30.3,27.3,67.9h-54.9V571.8
		L613.6,571.8z M669.7,662.6c-1.6,18-5.4,34.4-9.7,43.4h50.3c4.7-11.9,7-28.2,7.8-43.4H669.7L669.7,662.6z M795,586.1
		c0-29.9,14-51.5,39.7-51.5c2.7,0,9.4,0,16.8,1.2v-70.3c-0.4,0-3.1-1.2-9.7-1.2c-22.2,0-37.4,18-48.3,45.8h-0.8v-38h-51.4v234H795
		V586.1L795,586.1z"></path>
	<path d="M164.8,178.5c0-58.9-17.9-87.9-76-87.9c-50.2,0-73.6,33.9-73.6,88.3v7h48.3v-7.8c0-20.9,7-37.2,24.9-37.2
		c18.3,0,24.9,13.5,24.9,34.8c0,18.8-5.1,27.8-21.4,33.5c-35.8,13.5-42.1,15.5-54.1,23.7c-23,15.5-29.2,44.6-29.2,76.9
		c0,7.4,0.4,14.7,1.6,22.1h55.3c-4.3-7.4-5.5-19.2-5.5-30.3c0-24.9,9-39.7,30.4-46.2c8.2-2.9,16.4-6.5,23-14.3v56.4
		c0,11.5-3.5,26.6-11.7,34.4h63.1V329V178.5L164.8,178.5z M184.5,331.9h53.8V0h-53.8V331.9L184.5,331.9z M259.3,331.9H313V0h-53.8
		V331.9L259.3,331.9z M395.6,331.9c-7.8-13.5-8.6-32.3-8.6-79.3h106.3v-16.8c0-85.5-13.6-145.2-76.7-145.2
		c-68.2,0-83.4,61.4-83.4,148.1c0,32.7,0.4,67.1,7,93.3H395.6L395.6,331.9z M387,197.8c0-24.1,4.7-56.9,27.7-56.9
		c23.8,0,25.7,30.3,27.3,67.9H387V197.8L387,197.8z M443.1,288.6c-1.6,18-5.5,34.4-9.7,43.4h50.3c4.7-11.9,7-28.2,7.8-43.4H443.1
		L443.1,288.6z M663.7,301.2c0-39.7-10.9-65.9-46.4-81.8L585,204.7c-13.6-6.1-23.4-15.1-23.4-33.5c0-18,10.5-30.7,25.3-30.7
		c19.5,0,23.8,16,23.8,42.9H659v-11.9c0-50.7-22.2-81.4-71.7-81.4c-49.1,0-77.1,33.5-77.1,86.3c0,38,13.2,64.2,44.8,79.8l37.8,18.4
		c11.3,5.3,19.5,16.4,19.5,32.7c0,10.6-2,18.8-6.6,24.5h54.9C662.9,322.9,663.7,312.7,663.7,301.2L663.7,301.2z M564.3,329.9
		c-6.2-9.4-7.4-20-7.4-41.3h-48.3c0,20,0.4,32.3,2.7,43.4h54.1C565.1,331.5,564.7,330.7,564.3,329.9L564.3,329.9z"></path>
</g>
</svg>
